# Blender v2.79 (sub 0) OBJ File: 'door.blend'
# www.blender.org
mtllib door.mtl
o Cube
v 1.000000 -1.000000 -0.200000
v 1.000000 -1.000000 0.200000
v -1.000000 -1.000000 0.200000
v -1.000000 -1.000000 -0.200000
v 1.000000 0.500000 -0.200000
v 0.999999 0.500000 0.200000
v -1.000000 0.500000 0.200000
v -1.000000 0.500000 -0.200000
v 0.700000 1.000000 -0.200000
v 0.700000 1.000000 0.200000
v -0.700000 1.000000 0.200000
v -0.700000 1.000000 -0.200000
v 0.280000 1.200000 -0.200000
v 0.280000 1.200000 0.200000
v -0.280000 1.200000 0.200000
v -0.280000 1.200000 -0.200000
vt 0.300000 0.522875
vt 0.200000 0.998215
vt 0.200000 0.522875
vt 0.500000 0.166369
vt 0.925000 0.047534
vt 1.000000 0.166369
vt 0.000000 0.656430
vt 0.100000 1.000000
vt 0.000000 1.000000
vt 0.000000 0.166369
vt 0.500000 0.522874
vt 0.000000 0.522875
vt 0.200000 0.866444
vt 0.100000 0.522875
vt 0.200000 0.522875
vt 1.000000 0.522874
vt 0.075000 0.047534
vt 0.320000 0.000000
vt 0.425000 0.047534
vt 0.500000 0.166369
vt 0.100000 0.656430
vt 0.000000 0.522875
vt 0.100000 0.522875
vt 0.100000 0.866444
vt 0.200000 1.000000
vt 0.100000 1.000000
vt 0.300000 0.622696
vt 0.400000 0.755791
vt 0.300000 0.755791
vt 0.400000 0.855613
vt 0.300000 0.522875
vt 0.400000 0.622696
vt 0.575000 0.047534
vt 0.820000 0.000000
vt 0.300000 0.998215
vt 0.500000 0.522875
vt 0.180000 0.000000
vt 0.300000 0.855613
vt 0.400000 0.522875
vt 0.680000 0.000000
vn 0.0000 -1.0000 0.0000
vn 0.0000 0.0000 -1.0000
vn 1.0000 -0.0000 0.0000
vn 0.0000 -0.0000 1.0000
vn -1.0000 -0.0000 -0.0000
vn 0.8575 0.5145 0.0000
vn -0.8575 0.5145 -0.0000
vn 0.0000 1.0000 -0.0000
vn 0.4299 0.9029 0.0000
vn -0.4299 0.9029 -0.0000
usemtl Material
s off
f 2/1/1 4/2/1 1/3/1
f 8/4/2 9/5/2 5/6/2
f 5/7/3 2/8/3 1/9/3
f 6/10/4 3/11/4 2/12/4
f 7/13/5 4/14/5 3/15/5
f 1/16/2 8/4/2 5/6/2
f 10/17/4 15/18/4 11/19/4
f 6/10/4 11/19/4 7/20/4
f 6/21/6 9/22/6 10/23/6
f 8/24/7 11/25/7 12/26/7
f 16/27/8 14/28/8 13/29/8
f 10/30/9 13/29/9 14/28/9
f 12/31/10 15/32/10 16/27/10
f 12/33/2 13/34/2 9/5/2
f 2/1/1 3/35/1 4/2/1
f 8/4/2 12/33/2 9/5/2
f 5/7/3 6/21/3 2/8/3
f 6/10/4 7/20/4 3/11/4
f 7/13/5 8/24/5 4/14/5
f 1/16/2 4/36/2 8/4/2
f 10/17/4 14/37/4 15/18/4
f 6/10/4 10/17/4 11/19/4
f 6/21/6 5/7/6 9/22/6
f 8/24/7 7/13/7 11/25/7
f 16/27/8 15/32/8 14/28/8
f 10/30/9 9/38/9 13/29/9
f 12/31/10 11/39/10 15/32/10
f 12/33/2 16/40/2 13/34/2
