# Blender v2.79 (sub 0) OBJ File: 'heart.blend'
# www.blender.org
mtllib heart.mtl
o Cube
v 0.000000 -1.000000 -0.180000
v -0.000000 -1.000000 0.180000
v 1.000000 0.000000 -0.180000
v 0.999999 0.000000 0.180000
v -1.000000 0.000000 0.180000
v -1.000000 0.000000 -0.180000
v 0.000000 0.000000 -0.180000
v -0.000001 0.000000 0.180000
v -0.800000 0.500000 -0.180000
v -0.200000 0.500000 -0.180000
v -0.800000 0.500000 0.180000
v -0.200001 0.500000 0.180000
v 0.800000 0.500000 -0.180000
v 0.799999 0.500000 0.180000
v 0.200000 0.500000 -0.180000
v 0.199999 0.500000 0.180000
v -0.000000 -0.662500 0.280000
v 0.699999 0.037500 0.280000
v -0.700000 0.037500 0.280000
v -0.000001 0.037500 0.280000
v -0.560000 0.387500 0.280000
v -0.140001 0.387500 0.280000
v 0.559999 0.387500 0.280000
v 0.139999 0.387500 0.280000
v 0.000000 -0.662500 -0.280000
v 0.700000 0.037500 -0.280000
v -0.700000 0.037500 -0.280000
v 0.000000 0.037500 -0.280000
v -0.560000 0.387500 -0.280000
v -0.140000 0.387500 -0.280000
v 0.560000 0.387500 -0.280000
v 0.140000 0.387500 -0.280000
vt 0.000000 0.162651
vt 0.121363 0.079487
vt 0.075711 0.193343
vt 0.221454 0.534898
vt 0.110727 1.000000
vt 0.110727 0.534898
vt 0.332182 0.719069
vt 0.442909 0.896174
vt 0.332181 0.896174
vt 0.000000 1.000000
vt 0.000000 0.534898
vt 0.500000 0.162651
vt 0.621363 0.079487
vt 0.575711 0.193343
vt 0.387089 0.686181
vt 0.260436 0.719069
vt 0.221455 0.686181
vt 0.663450 0.534898
vt 0.774177 0.732224
vt 0.663450 0.732224
vt 0.130435 0.302243
vt 0.167015 0.291058
vt 0.387089 0.567786
vt 0.221454 0.567786
vt 0.552723 0.686181
vt 0.426070 0.719069
vt 0.387089 0.686181
vt 0.552723 0.534899
vt 0.663450 0.732224
vt 0.552723 0.732224
vt 0.565217 0.000000
vt 0.925711 0.079778
vt 0.552723 0.567786
vt 0.387089 0.567786
vt 0.221454 0.719069
vt 0.332181 0.896175
vt 0.221454 0.896175
vt 0.773537 0.242346
vt 0.925711 0.405204
vt 0.727885 0.356201
vt 0.717391 0.395305
vt 0.819189 0.453916
vt 0.847826 0.534898
vt 0.260436 0.534898
vt 0.376380 0.534898
vt 1.000000 0.465309
vt 1.000000 0.000415
vt 0.630435 0.302243
vt 0.667015 0.291058
vt 0.425711 0.079778
vt 0.273537 0.242346
vt 0.425711 0.405204
vt 0.227885 0.356201
vt 0.500000 0.465309
vt 0.500000 0.000415
vt 0.065217 0.000000
vt 0.217391 0.395305
vt 0.319189 0.453916
vt 0.347826 0.534898
vt 0.426070 0.534898
vt 0.542014 0.534898
vt 0.221454 1.000000
vt 0.442909 0.719069
vt 0.110727 1.000000
vt 0.376380 0.719069
vt 0.774177 0.534898
vt 0.542014 0.719069
vt 0.663450 0.534898
vt 0.332181 0.719069
vn 0.3282 0.1313 -0.9354
vn 0.7071 -0.7071 0.0000
vn -0.9285 0.3714 -0.0000
vn -0.7071 -0.7071 -0.0000
vn -0.3282 0.1313 0.9354
vn 0.9196 0.3678 0.1379
vn 0.0000 1.0000 0.0000
vn 0.0000 0.6644 -0.7474
vn 0.9285 0.3714 0.0000
vn -0.9196 0.3678 -0.1379
vn -0.2733 -0.2733 0.9223
vn 0.0000 -0.0000 1.0000
vn 0.0000 0.6644 0.7474
vn 0.9196 0.3678 -0.1379
vn 0.3282 0.1313 0.9354
vn 0.2733 -0.2733 0.9223
vn 0.0000 0.0000 -1.0000
vn -0.2733 -0.2733 -0.9223
vn 0.2733 -0.2733 -0.9223
vn -0.3282 0.1313 -0.9354
vn -0.9196 0.3678 0.1379
usemtl Material
s off
f 13/1/1 26/2/1 31/3/1
f 1/4/2 4/5/2 2/6/2
f 6/7/3 11/8/3 9/9/3
f 2/6/4 6/10/4 1/11/4
f 11/12/5 19/13/5 21/14/5
f 7/15/6 30/16/6 10/17/6
f 9/18/7 12/19/7 10/20/7
f 15/21/8 31/3/8 32/22/8
f 8/23/9 10/17/9 12/24/9
f 8/25/10 24/26/10 16/27/10
f 14/28/7 15/29/7 16/30/7
f 5/31/11 17/32/11 19/13/11
f 7/33/3 16/27/3 15/34/3
f 4/35/9 13/36/9 14/37/9
f 20/38/12 17/32/12 18/39/12
f 20/38/12 21/14/12 19/13/12
f 18/39/12 24/40/12 20/38/12
f 16/41/13 23/42/13 14/43/13
f 8/23/14 22/44/14 20/45/14
f 14/43/15 18/39/15 4/46/15
f 4/46/16 17/32/16 2/47/16
f 12/48/13 21/14/13 22/49/13
f 25/50/17 28/51/17 26/2/17
f 28/51/17 31/3/17 26/2/17
f 27/52/17 30/53/17 28/51/17
f 6/54/18 25/50/18 1/55/18
f 3/56/19 25/50/19 26/2/19
f 10/57/8 29/58/8 9/59/8
f 9/59/20 27/52/20 6/54/20
f 7/33/21 32/60/21 28/61/21
f 13/1/1 3/56/1 26/2/1
f 1/4/2 3/62/2 4/5/2
f 6/7/3 5/63/3 11/8/3
f 2/6/4 5/64/4 6/10/4
f 11/12/5 5/31/5 19/13/5
f 7/15/6 28/65/6 30/16/6
f 9/18/7 11/66/7 12/19/7
f 15/21/8 13/1/8 31/3/8
f 8/23/9 7/15/9 10/17/9
f 8/25/10 20/67/10 24/26/10
f 14/28/7 13/68/7 15/29/7
f 5/31/11 2/47/11 17/32/11
f 7/33/3 8/25/3 16/27/3
f 4/35/9 3/69/9 13/36/9
f 20/38/12 19/13/12 17/32/12
f 20/38/12 22/49/12 21/14/12
f 18/39/12 23/42/12 24/40/12
f 16/41/13 24/40/13 23/42/13
f 8/23/14 12/24/14 22/44/14
f 14/43/15 23/42/15 18/39/15
f 4/46/16 18/39/16 17/32/16
f 12/48/13 11/12/13 21/14/13
f 25/50/17 27/52/17 28/51/17
f 28/51/17 32/22/17 31/3/17
f 27/52/17 29/58/17 30/53/17
f 6/54/18 27/52/18 25/50/18
f 3/56/19 1/55/19 25/50/19
f 10/57/8 30/53/8 29/58/8
f 9/59/20 29/58/20 27/52/20
f 7/33/21 15/34/21 32/60/21
