# Blender v2.79 (sub 0) OBJ File: 'money.blend'
# www.blender.org
mtllib money.mtl
o Sphere
v 0.000000 -0.000000 -1.000000
v 0.000000 -0.707107 -0.707107
v 0.707107 0.707107 0.000000
v 1.000000 -0.000000 0.000000
v 0.707107 -0.707107 0.000000
v -0.000000 0.814017 0.000000
v -0.000000 0.707107 0.707107
v -0.000000 -0.000000 1.000000
v -0.000000 -0.707107 0.707107
v 0.000000 -1.000000 0.000000
v -0.707107 0.707106 -0.000000
v -1.000000 -0.000000 -0.000000
v -0.707107 -0.707107 -0.000000
v 0.000000 0.707106 -0.707107
v -0.180000 0.753699 0.180000
v -0.273600 1.146470 0.273600
v -0.180000 0.753699 -0.180000
v -0.273600 1.146470 -0.273600
v 0.180000 0.753699 0.180000
v 0.273600 1.146470 0.273600
v 0.180000 0.753699 -0.180000
v 0.273600 1.146470 -0.273600
vt 0.831063 0.000000
vt 0.662126 0.378632
vt 0.662126 0.064963
vt 0.000000 0.557962
vt 0.119457 0.714797
vt 0.000000 0.871631
vt 0.729831 0.600430
vt 0.868274 0.757265
vt 0.662126 0.757265
vt 1.000000 0.064963
vt 0.831063 0.443595
vt 0.324252 0.238679
vt 0.000000 0.132251
vt 0.229281 0.044084
vt 0.238913 0.871632
vt 0.094971 0.000000
vt 0.324252 0.469795
vt 0.000000 0.363367
vt 0.493189 0.000000
vt 0.324252 0.378632
vt 0.324252 0.064963
vt 0.238913 0.557962
vt 0.662126 0.443595
vt 0.868274 0.443595
vt 0.662126 0.064963
vt 0.493189 0.443595
vt 0.324252 0.822228
vt 0.324252 0.508558
vt 0.662126 0.822228
vt 0.493189 0.887191
vt 0.092442 0.994832
vt 0.031625 0.871632
vt 0.092442 0.871632
vt 0.755964 0.757265
vt 0.662126 0.878632
vt 0.662126 0.798785
vt 0.755964 0.878632
vt 0.662126 0.958479
vt 0.184885 0.994832
vt 0.124067 0.871632
vt 0.184885 0.871632
vt 1.000000 0.378632
vt 0.094971 0.557962
vt 0.662126 0.378632
vt 0.662126 0.508558
vt 0.000000 0.994832
vt 0.755964 1.000000
vn 0.6786 -0.2811 -0.6786
vn 0.1479 0.9779 -0.1479
vn 0.3574 -0.8629 -0.3574
vn 0.6786 0.2811 -0.6786
vn 0.6786 -0.2811 0.6786
vn 0.1479 0.9779 0.1479
vn 0.3574 -0.8629 0.3574
vn 0.6786 0.2811 0.6786
vn -0.6786 -0.2811 0.6786
vn -0.1479 0.9779 0.1479
vn -0.3574 -0.8629 0.3574
vn -0.6786 0.2811 0.6786
vn -0.6786 -0.2811 -0.6786
vn -0.1479 0.9779 -0.1479
vn -0.3574 -0.8629 -0.3574
vn -0.6786 0.2811 -0.6786
vn -0.9728 -0.2318 0.0000
vn 0.0000 -0.2318 -0.9728
vn 0.9728 -0.2318 0.0000
vn 0.0000 -0.2318 0.9728
usemtl None
s off
f 1/1/1 5/2/1 2/3/1
f 14/4/2 6/5/2 3/6/2
f 10/7/3 2/8/3 5/9/3
f 14/10/4 4/11/4 1/1/4
f 4/12/5 9/13/5 5/14/5
f 3/6/6 6/5/6 7/15/6
f 10/16/7 5/14/7 9/13/7
f 3/17/8 8/18/8 4/12/8
f 8/19/9 13/20/9 9/21/9
f 7/15/10 6/5/10 11/22/10
f 10/7/11 9/23/11 13/24/11
f 7/25/12 12/26/12 8/19/12
f 12/26/13 2/27/13 13/28/13
f 11/22/14 6/5/14 14/4/14
f 10/7/15 13/24/15 2/8/15
f 12/26/16 14/29/16 1/30/16
f 16/31/17 17/32/17 15/33/17
f 18/34/18 21/35/18 17/36/18
f 22/37/19 19/38/19 21/35/19
f 20/39/20 15/40/20 19/41/20
f 1/1/1 4/11/1 5/2/1
f 14/10/4 3/42/4 4/11/4
f 4/12/5 8/18/5 9/13/5
f 3/17/8 7/43/8 8/18/8
f 8/19/9 12/26/9 13/20/9
f 7/25/12 11/44/12 12/26/12
f 12/26/13 1/30/13 2/27/13
f 12/26/16 11/45/16 14/29/16
f 16/31/17 18/46/17 17/32/17
f 18/34/18 22/37/18 21/35/18
f 22/37/19 20/47/19 19/38/19
f 20/39/20 16/31/20 15/40/20
