# Blender v2.79 (sub 0) OBJ File: 'potion.blend'
# www.blender.org
mtllib potion.mtl
o Icosphere
v -0.276388 -0.447220 -0.850649
v 0.151065 0.223817 0.997128
v -0.901645 0.223818 0.451797
v 0.995008 0.223815 0.164454
v -0.088470 -0.994276 0.272289
v 0.425323 -0.850654 0.309011
v -0.003618 -0.523793 0.892291
v 0.847501 -0.523790 0.279175
v 0.425323 -0.850654 -0.309011
v -0.525730 -0.850652 0.000000
v -0.849739 -0.523791 0.272290
v -0.162456 -0.850654 -0.499995
v -0.688189 -0.525736 -0.499997
v 0.527408 -0.523791 -0.719748
v 0.951058 0.000000 -0.309013
v 0.587786 0.000000 0.809017
v -0.587786 0.000000 0.809017
v -0.587786 0.000000 -0.809017
v -0.901645 0.223818 -0.451797
v 0.587786 0.000000 -0.809017
v 0.151065 0.223817 -0.997128
v 0.688189 0.525736 0.499997
v -0.262869 0.525738 0.809012
v -0.850648 0.525736 0.000000
v -0.262869 0.525738 -0.809012
v 0.688189 0.525736 -0.499997
v 0.113719 1.070654 0.349997
v 0.368011 1.070652 -0.000000
v -0.297726 1.070654 0.216308
v -0.297726 1.070654 -0.216308
v 0.113719 1.070654 -0.349997
v 0.121300 1.560654 0.373330
v 0.380278 1.560652 -0.000000
v -0.317574 1.560654 0.220294
v 0.121300 1.560654 -0.373330
v -0.307650 1.560654 -0.223518
v 0.091487 1.348305 -0.236516
v 0.091487 1.851695 -0.236516
v 0.256943 1.348305 0.008784
v 0.256943 1.851695 0.008784
v 0.074778 1.348305 0.241945
v 0.074778 1.851695 0.241945
v -0.203263 1.348305 0.140746
v -0.203263 1.851695 0.140746
v -0.192936 1.348305 -0.154959
v -0.192936 1.851695 -0.154959
vt 0.214546 0.645252
vt 0.098951 0.659962
vt 0.104513 0.562491
vt 0.645949 0.550800
vt 0.631543 0.682376
vt 0.514830 0.615230
vt 1.000000 0.036155
vt 0.879525 0.089501
vt 0.906665 0.000000
vt 0.620624 0.810561
vt 0.720332 0.780567
vt 0.658491 0.910528
vt 0.559208 0.019281
vt 0.654844 0.156382
vt 0.483248 0.162742
vt 0.289503 0.811966
vt 0.306939 0.947012
vt 0.158429 0.930357
vt 0.117071 0.562491
vt 0.077917 0.438686
vt 0.275011 0.438687
vt 0.486321 0.922809
vt 0.744357 0.448021
vt 0.765655 0.360435
vt 0.892078 0.411283
vt 0.414874 0.260882
vt 0.586074 0.257316
vt 0.578413 0.434506
vt 0.000002 0.284402
vt 0.129284 0.193694
vt 0.176464 0.377314
vt 0.223647 0.193694
vt 0.706299 0.255519
vt 0.725359 0.137377
vt 1.000000 0.373648
vt 0.866244 0.276152
vt 0.968021 0.125095
vt 0.252808 0.128658
vt 0.352928 0.284405
vt 0.100124 0.128656
vt 0.414867 0.368961
vt 0.666343 0.402055
vt 0.558431 0.984386
vt 0.352928 0.428598
vt 0.000000 0.428594
vt 0.200749 1.000000
vt 0.414768 0.825510
vt 0.462268 0.721364
vt 0.719268 0.928590
vt 0.285523 0.537301
vt 0.052417 0.938317
vt 0.063209 0.778451
vt 0.352928 0.122465
vt 0.706299 0.110376
vt 0.422825 0.569347
vt 0.352928 0.734735
vt 0.720332 0.644146
vt 0.000000 0.654479
vt 0.531485 0.535501
vt 0.306939 0.641005
vt 0.474530 0.000000
vt 0.128416 0.110308
vt 0.225221 0.108741
vt 0.706299 0.502288
vt 0.721597 0.958851
vt 0.809598 0.880413
vt 0.809598 0.977816
vt 0.822382 0.794457
vt 0.901243 0.714158
vt 0.901243 0.820042
vt 0.614087 0.535501
vt 0.720332 0.857174
vt 0.820991 0.696360
vt 0.176467 0.000000
vt 0.257898 0.040937
vt 0.095036 0.040935
vt 0.949266 0.919458
vt 0.884766 0.821395
vt 0.949266 0.820042
vt 0.884766 0.936386
vt 0.820991 0.820042
vt 0.884766 0.823528
vt 0.793489 0.857174
vt 0.751405 0.770664
vt 0.813615 0.770664
vt 0.824723 0.563001
vt 0.741458 0.607497
vt 0.720332 0.563001
vt 0.804070 0.696360
vt 0.739553 0.696360
vt 0.885352 0.634732
vt 0.824723 0.548843
vt 0.885352 0.535501
vt 0.820991 0.724742
vt 0.720332 0.724742
vt 0.884766 0.920811
vt 0.820991 0.932899
vt 0.731279 0.857174
vt 0.771793 0.535501
vt 0.805975 0.607497
vt 0.824723 0.648074
vt 0.763339 0.696360
vn -0.2178 -0.9631 -0.1582
vn 0.0611 -0.9802 -0.1882
vn 0.8210 -0.0398 -0.5695
vn -0.5746 -0.3304 -0.7488
vn 0.8558 -0.0907 0.5092
vn -0.2198 -0.0907 0.9713
vn -0.9976 -0.0693 0.0000
vn -0.2269 -0.0675 -0.9716
vn 0.7943 -0.1899 -0.5771
vn 0.3557 0.5773 0.7350
vn -0.5891 0.5773 0.5654
vn -0.7253 0.6074 -0.3240
vn 0.0840 0.6074 -0.7900
vn 0.8089 0.5773 -0.1112
vn 0.5679 0.7122 -0.4126
vn 0.3557 0.5773 -0.7350
vn -0.2169 0.7122 -0.6676
vn -0.5891 0.5773 -0.5654
vn -0.7019 0.7122 0.0000
vn -0.7253 0.6074 0.3240
vn -0.2169 0.7122 0.6676
vn 0.0840 0.6074 0.7900
vn 0.5679 0.7122 0.4126
vn 0.7773 0.6074 0.1642
vn 0.8990 0.3578 -0.2526
vn 0.7947 0.1876 -0.5773
vn 0.5180 0.3578 -0.7770
vn -0.2940 0.1817 -0.9384
vn -0.5789 0.3578 -0.7328
vn -0.9860 0.1666 0.0000
vn -0.5789 0.3578 0.7328
vn -0.2940 0.1817 0.9384
vn 0.5180 0.3578 0.7770
vn 0.8016 0.1817 0.5695
vn 0.3026 -0.1939 -0.9332
vn 0.1271 -0.2882 -0.9491
vn -0.7933 -0.1887 -0.5788
vn -0.9461 -0.2568 -0.1973
vn -0.7940 -0.1935 0.5763
vn -0.5220 -0.4689 0.7124
vn 0.3028 -0.1935 0.9332
vn 0.5162 -0.4689 0.7166
vn 0.9811 -0.1935 0.0004
vn 0.8411 -0.4689 -0.2695
vn 0.1892 -0.7907 -0.5822
vn 0.0627 -0.6446 -0.7620
vn -0.4089 -0.6617 -0.6284
vn -0.4911 -0.7947 -0.3568
vn -0.7640 -0.6255 -0.1582
vn -0.4889 -0.7910 0.3678
vn -0.4272 -0.6912 0.5829
vn 0.7872 -0.5628 -0.2522
vn 0.6122 -0.7907 0.0000
vn 0.2692 -0.9631 0.0000
vn 0.1809 -0.7952 0.5787
vn 0.4831 -0.5628 0.6707
vn -0.9995 -0.0206 -0.0224
vn 0.8088 -0.0202 0.5877
vn -0.3090 -0.0202 -0.9509
vn -0.3292 -0.0210 0.9440
vn 0.8088 -0.0202 -0.5877
vn -0.9992 -0.0405 0.0000
vn 0.8210 -0.0398 0.5695
vn -0.3295 -0.0398 -0.9433
vn -0.3088 -0.0405 0.9503
vn 0.0000 1.0000 0.0000
vn 0.8290 0.0000 -0.5592
vn 0.7880 -0.0000 0.6157
vn -0.3420 -0.0000 0.9397
vn -0.9994 0.0000 -0.0349
vn -0.2756 0.0000 -0.9613
vn 0.0000 -1.0000 -0.0000
usemtl Material
s off
f 5/1/1 10/2/1 12/3/1
f 5/4/2 12/5/2 9/6/2
f 33/7/3 31/8/3 35/9/3
f 1/10/4 13/11/4 18/12/4
f 8/13/5 4/14/5 16/15/5
f 7/16/6 2/17/6 17/18/6
f 11/19/7 3/20/7 19/21/7
f 1/10/8 18/12/8 21/22/8
f 14/23/9 20/24/9 15/25/9
f 2/26/10 22/27/10 27/28/10
f 3/20/11 23/29/11 29/30/11
f 19/21/12 24/31/12 30/32/12
f 21/33/13 25/34/13 31/8/13
f 4/35/14 26/36/14 28/37/14
f 28/37/15 26/36/15 31/8/15
f 26/36/16 21/33/16 31/8/16
f 31/38/17 25/39/17 30/32/17
f 25/39/18 19/21/18 30/32/18
f 30/32/19 24/31/19 29/30/19
f 24/31/20 3/20/20 29/30/20
f 29/30/21 23/29/21 27/40/21
f 23/41/22 2/26/22 27/28/22
f 27/28/23 22/27/23 28/42/23
f 22/27/24 4/14/24 28/42/24
f 15/25/25 26/36/25 4/35/25
f 15/25/26 20/24/26 26/36/26
f 20/24/27 21/33/27 26/36/27
f 21/22/28 18/12/28 25/43/28
f 18/44/29 19/21/29 25/39/29
f 19/21/30 3/20/30 24/31/30
f 17/45/31 23/29/31 3/20/31
f 17/18/32 2/17/32 23/46/32
f 16/15/33 22/27/33 2/26/33
f 16/15/34 4/14/34 22/27/34
f 20/47/35 14/48/35 21/22/35
f 14/48/36 1/10/36 21/22/36
f 18/12/37 13/11/37 19/49/37
f 13/50/38 11/19/38 19/21/38
f 3/51/39 11/52/39 17/18/39
f 11/52/40 7/16/40 17/18/40
f 2/26/41 7/53/41 16/15/41
f 7/53/42 8/13/42 16/15/42
f 4/14/43 8/13/43 15/54/43
f 8/55/44 14/48/44 15/56/44
f 9/6/45 12/5/45 14/48/45
f 12/5/46 1/10/46 14/48/46
f 12/5/47 13/11/47 1/10/47
f 12/5/48 10/57/48 13/11/48
f 10/2/49 11/52/49 13/58/49
f 10/2/50 5/1/50 11/52/50
f 5/1/51 7/16/51 11/52/51
f 8/55/52 9/6/52 14/48/52
f 8/55/53 6/59/53 9/6/53
f 6/59/54 5/4/54 9/6/54
f 5/1/55 6/60/55 7/16/55
f 6/61/56 8/13/56 7/53/56
f 30/32/57 34/62/57 36/63/57
f 33/64/58 27/28/58 28/42/58
f 36/65/59 31/66/59 30/67/59
f 29/68/60 32/69/60 34/70/60
f 33/7/61 28/37/61 31/8/61
f 30/32/62 29/30/62 34/62/62
f 33/64/63 32/71/63 27/28/63
f 36/65/64 35/72/64 31/66/64
f 29/68/65 27/73/65 32/69/65
f 33/74/66 35/75/66 36/63/66
f 36/63/66 34/62/66 33/74/66
f 34/62/66 32/76/66 33/74/66
f 38/77/67 39/78/67 37/79/67
f 40/80/68 41/81/68 39/82/68
f 42/83/69 43/84/69 41/85/69
f 38/86/66 44/87/66 42/88/66
f 44/87/70 45/89/70 43/90/70
f 46/91/71 37/92/71 45/93/71
f 39/94/72 43/84/72 45/95/72
f 38/77/67 40/96/67 39/78/67
f 40/80/68 42/97/68 41/81/68
f 42/83/69 44/98/69 43/84/69
f 42/88/66 40/99/66 38/86/66
f 38/86/66 46/100/66 44/87/66
f 44/87/70 46/100/70 45/89/70
f 46/91/71 38/101/71 37/92/71
f 45/95/72 37/102/72 39/94/72
f 39/94/72 41/85/72 43/84/72
