# Blender v2.79 (sub 0) OBJ File: 'sword.blend'
# www.blender.org
mtllib sword.mtl
o Cube.002
v -6.120000 -0.036000 0.193200
v -6.120000 0.036000 0.193200
v -5.820000 -0.036000 -0.193200
v -5.820000 0.036000 -0.193200
v -1.180000 -0.036000 0.193200
v -1.180000 0.036000 0.193200
v -1.180000 -0.036000 -0.193200
v -1.180000 0.036000 -0.193200
v -1.000000 -0.098000 0.120000
v -1.000000 -0.098000 -0.120000
v -1.000000 0.098000 0.120000
v -1.000000 0.098000 -0.120000
v -1.300001 -0.098000 0.720000
v -1.299999 -0.098000 -0.720000
v -1.300002 0.098000 0.720000
v -1.299999 0.098000 -0.720000
v -0.999999 -0.098000 -0.600000
v -0.999999 0.098000 -0.600000
v -1.000001 -0.098000 0.600000
v -1.000001 0.098000 0.600000
v 1.000000 -0.084000 -0.140000
v 1.000000 -0.084000 0.140000
v -1.000000 -0.084000 0.140000
v -1.000000 -0.084000 -0.140000
v 1.000000 0.084000 -0.140000
v 1.000000 0.084000 0.140000
v -1.000000 0.084000 0.140000
v -1.000000 0.084000 -0.140000
v 1.300000 -0.117600 -0.196000
v 1.300000 -0.117600 0.196000
v 1.300001 0.117600 -0.196000
v 1.299999 0.117600 0.196000
v 1.600000 -0.000000 0.000000
vt 0.482965 1.000000
vt 0.556889 0.938586
vt 0.556889 1.000000
vt 0.482965 0.938586
vt 0.556889 0.000000
vt 0.104243 0.574226
vt 0.052496 0.525667
vt 0.104243 0.525667
vt 0.556889 0.996807
vt 0.630812 0.000000
vt 0.630812 0.996807
vt 0.630812 0.937177
vt 0.682558 0.000000
vt 0.682558 0.997770
vt 0.682558 0.060593
vt 0.734305 0.997771
vt 0.682559 0.997771
vt 0.333727 0.578320
vt 0.425971 0.652214
vt 0.333727 0.599433
vt 0.734305 0.000000
vt 0.927148 0.132188
vt 0.734305 0.132188
vt 0.241483 0.599432
vt 0.333727 0.525539
vt 0.333727 0.652214
vt 0.241483 0.578320
vt 0.241483 0.536095
vt 0.935719 0.264375
vt 1.000000 0.132188
vt 1.000000 0.264375
vt 0.333727 0.641658
vt 0.241483 0.641657
vt 0.903578 0.264375
vt 0.839297 0.132188
vt 0.903578 0.132188
vt 0.425971 0.525539
vt 0.333727 0.536095
vt 0.931335 0.528751
vt 0.839297 0.396563
vt 0.931335 0.396563
vt 0.839297 0.396563
vt 0.932631 0.264375
vt 0.932631 0.396563
vt 0.935719 0.132188
vt 0.794301 0.536143
vt 0.831798 0.132188
vt 0.831798 0.536143
vt 0.741811 0.132188
vt 0.779302 0.536144
vt 0.741805 0.536144
vt 0.786801 0.598070
vt 0.734305 0.598070
vt 0.448468 0.121973
vt 0.275980 0.525539
vt 0.275980 0.121973
vt 0.206985 0.121104
vt 0.034497 0.525667
vt 0.034497 0.121104
vt 0.482965 0.061800
vt 0.241483 0.061800
vt 0.362224 0.000000
vt 0.241483 0.060314
vt 0.839297 0.598069
vt 0.786801 0.598069
vt 0.478467 0.604852
vt 0.425971 0.604852
vt 0.452219 0.525539
vt 0.052496 0.604980
vt 0.000000 0.604980
vt 0.026248 0.525667
vt 0.000000 0.060314
vt 0.120741 0.000000
vt 0.927148 0.113304
vt 0.964646 0.000000
vt 0.964646 0.113304
vt 0.482965 0.000000
vt 0.052496 0.574226
vt 0.556889 0.000000
vt 0.630812 0.000000
vt 0.734305 0.000000
vt 0.927148 0.000000
vt 0.839297 0.264375
vt 0.839297 0.528751
vt 0.794301 0.132188
vt 0.779308 0.132188
vt 0.448468 0.525539
vt 0.206985 0.525667
vt 0.927148 0.000000
vn -0.7899 0.0000 -0.6133
vn 0.0000 0.0000 -1.0000
vn 1.0000 0.0000 0.0000
vn 0.0000 0.0000 1.0000
vn 0.0000 -1.0000 0.0000
vn 0.0000 1.0000 0.0000
vn -1.0000 -0.0000 -0.0000
vn 0.3714 0.0000 -0.9285
vn 0.3714 0.0000 0.9285
vn -0.1113 0.9938 -0.0000
vn 0.5469 0.0000 0.8372
vn -0.1835 -0.0000 0.9830
vn -0.1835 0.0000 -0.9830
vn -0.1113 -0.9938 0.0000
vn 0.3650 -0.9310 0.0000
vn 0.3650 0.9310 0.0000
vn 0.5469 -0.0000 -0.8372
usemtl Material
s off
f 2/1/1 3/2/1 1/3/1
f 4/4/2 7/5/2 3/2/2
f 8/6/3 5/7/3 7/8/3
f 6/9/4 1/10/4 5/11/4
f 3/12/5 5/13/5 1/14/5
f 4/15/6 6/16/6 8/17/6
f 9/18/5 14/19/5 10/20/5
f 15/21/7 14/22/7 13/23/7
f 11/24/6 16/25/6 15/26/6
f 16/25/6 12/27/6 18/28/6
f 12/29/3 17/30/3 18/31/3
f 10/20/5 14/19/5 17/32/5
f 11/24/6 15/26/6 20/33/6
f 11/34/3 19/35/3 9/36/3
f 13/37/5 9/18/5 19/38/5
f 17/39/8 16/40/8 18/41/8
f 19/42/9 15/43/9 13/44/9
f 10/45/3 11/34/3 9/36/3
f 22/46/5 24/47/5 21/48/5
f 28/49/6 26/50/6 25/51/6
f 25/51/10 32/52/10 31/53/10
f 26/54/4 23/55/4 22/56/4
f 21/57/2 28/58/2 25/59/2
f 32/60/11 30/61/11 33/62/11
f 22/56/12 32/60/12 26/54/12
f 25/59/13 29/63/13 21/57/13
f 22/46/14 29/64/14 30/65/14
f 30/66/15 29/67/15 33/68/15
f 31/69/16 32/70/16 33/71/16
f 29/63/17 31/72/17 33/73/17
f 23/74/7 28/75/7 24/76/7
f 2/1/1 4/4/1 3/2/1
f 4/4/2 8/77/2 7/5/2
f 8/6/3 6/78/3 5/7/3
f 6/9/4 2/79/4 1/10/4
f 3/12/5 7/80/5 5/13/5
f 4/15/6 2/81/6 6/16/6
f 9/18/5 13/37/5 14/19/5
f 15/21/7 16/82/7 14/22/7
f 11/24/6 12/27/6 16/25/6
f 12/29/3 10/45/3 17/30/3
f 11/34/3 20/83/3 19/35/3
f 17/39/8 14/84/8 16/40/8
f 19/42/9 20/83/9 15/43/9
f 10/45/3 12/29/3 11/34/3
f 22/46/5 23/85/5 24/47/5
f 28/49/6 27/86/6 26/50/6
f 25/51/10 26/50/10 32/52/10
f 26/54/4 27/87/4 23/55/4
f 21/57/2 24/88/2 28/58/2
f 22/56/12 30/61/12 32/60/12
f 25/59/13 31/72/13 29/63/13
f 22/46/14 21/48/14 29/64/14
f 23/74/7 27/89/7 28/75/7
